HIERARCHY
ROOT joint_Root
{
	OFFSET 0.0 0.0 0.0
	CHANNELS 6 Xposition Yposition Zposition Zrotation Xrotation Yrotation 
	JOINT Hips
	{
		OFFSET -17.1583 93.1646 452.98
		CHANNELS 6 Xposition Yposition Zposition Zrotation Xrotation Yrotation 
		JOINT Spine
		{
			OFFSET 15.7357 0.0 0.0
			CHANNELS 6 Xposition Yposition Zposition Zrotation Xrotation Yrotation 
			JOINT Chest
			{
				OFFSET 8.98455 -0.406207 0.0
				CHANNELS 6 Xposition Yposition Zposition Zrotation Xrotation Yrotation 
				JOINT Neck
				{
					OFFSET 16.3773 0.0 0.0
					CHANNELS 6 Xposition Yposition Zposition Zrotation Xrotation Yrotation 
					JOINT Head
					{
						OFFSET 6.45672 0.0 0.0
						CHANNELS 6 Xposition Yposition Zposition Zrotation Xrotation Yrotation 
						End Site
						{
							OFFSET 0.0 0.0 0.0
						}
					}
				}
				JOINT Shoulder_L
				{
					OFFSET 12.9942 -0.242716 4.98039
					CHANNELS 6 Xposition Yposition Zposition Zrotation Xrotation Yrotation 
					JOINT UpperArm_L
					{
						OFFSET 5.34809 0.0 0.0
						CHANNELS 6 Xposition Yposition Zposition Zrotation Xrotation Yrotation 
						JOINT LowerArm_L
						{
							OFFSET 24.3286 1.87007e-05 0.0
							CHANNELS 6 Xposition Yposition Zposition Zrotation Xrotation Yrotation 
							JOINT Hand_L
							{
								OFFSET 22.2916 0.0 0.0
								CHANNELS 6 Xposition Yposition Zposition Zrotation Xrotation Yrotation 
								End Site
								{
									OFFSET 0.0 0.0 0.0
								}
							}
						}
					}
				}
				JOINT Shoulder_R
				{
					OFFSET 12.9945 -0.242716 -4.98039
					CHANNELS 6 Xposition Yposition Zposition Zrotation Xrotation Yrotation 
					JOINT UpperArm_R
					{
						OFFSET -5.34813 0.0 0.0
						CHANNELS 6 Xposition Yposition Zposition Zrotation Xrotation Yrotation 
						JOINT LowerArm_R
						{
							OFFSET -24.3289 0.000322201 0.0
							CHANNELS 6 Xposition Yposition Zposition Zrotation Xrotation Yrotation 
							JOINT Hand_R
							{
								OFFSET -22.2915 -0.000108084 0.0
								CHANNELS 6 Xposition Yposition Zposition Zrotation Xrotation Yrotation 
								End Site
								{
									OFFSET 0.0 0.0 0.0
								}
							}
						}
					}
				}
			}
		}
		JOINT UpperLeg_L
		{
			OFFSET -2.19248 -6.46944 0.0
			CHANNELS 6 Xposition Yposition Zposition Zrotation Xrotation Yrotation 
			JOINT LowerLeg_L
			{
				OFFSET 39.0811 0.0 -1.23785e-05
				CHANNELS 6 Xposition Yposition Zposition Zrotation Xrotation Yrotation 
				JOINT Foot_L
				{
					OFFSET 40.9854 0.0 -1.26872e-05
					CHANNELS 6 Xposition Yposition Zposition Zrotation Xrotation Yrotation 
					JOINT Toes_L
					{
						OFFSET 11.7543 0.0 0.0
						CHANNELS 6 Xposition Yposition Zposition Zrotation Xrotation Yrotation 
						End Site
						{
							OFFSET 0.0 0.0 0.0
						}
					}
				}
			}
		}
		JOINT UpperLeg_R
		{
			OFFSET -2.19251 6.46944 0.0
			CHANNELS 6 Xposition Yposition Zposition Zrotation Xrotation Yrotation 
			JOINT LowerLeg_R
			{
				OFFSET -39.0811 -0.00228153 -0.0401928
				CHANNELS 6 Xposition Yposition Zposition Zrotation Xrotation Yrotation 
				JOINT Foot_R
				{
					OFFSET -40.9854 0.0 0.0
					CHANNELS 6 Xposition Yposition Zposition Zrotation Xrotation Yrotation 
					JOINT Toes_R
					{
						OFFSET -11.7543 0.0 0.0
						CHANNELS 6 Xposition Yposition Zposition Zrotation Xrotation Yrotation 
						End Site
						{
							OFFSET 0.0 0.0 0.0
						}
					}
				}
			}
		}
	}
}
MOTION
Frames:	4
Frame Time:	0.0333333
0.000000 0.000000 0.000000 0.000000 0.000000 -0.000000 229.626000 94.509100 -159.314000 87.545400 -3.056190 -5.655480 15.735700 0.000005 -0.000001 139.997000 86.748800 -139.542000 8.984550 -0.406207 -0.000000 -3.612070 4.933020 1.066250 16.377300 -0.000001 -0.000001 -4.504440 -1.367230 2.438820 6.456720 -0.000001 -0.000000 4.988720 -2.985980 3.836950 12.994200 -0.242716 4.980390 -91.961500 5.236960 -69.432600 5.348090 -0.000007 -0.000001 -45.250200 -22.592000 29.659800 24.328600 0.000019 0.000005 1.024990 18.101500 -3.295530 22.291600 -0.000001 0.000005 13.775400 4.417980 17.901500 12.994500 -0.242716 -4.980390 89.587600 1.525380 -74.869800 -5.348130 -0.000001 -0.000004 -62.526100 19.319800 -21.873200 -24.328900 0.000322 -0.000009 -2.642410 -1.967210 -53.340700 -22.291500 -0.000108 -0.000004 5.547050 5.412300 -3.338430 -2.192480 -6.469440 -0.000000 -172.836000 -2.083440 -24.618300 39.081100 -0.000007 -0.000012 0.057550 -0.192138 16.674500 40.985400 -0.000006 -0.000013 -10.359200 10.738700 -58.825800 11.754300 -0.000000 0.000003 0.001959 0.045172 -14.744400 -2.192510 6.469440 -0.000001 -178.826000 6.828030 -176.158000 -39.081100 -0.002282 -0.040193 0.004478 -0.003955 16.216000 -40.985400 0.000008 0.000006 0.282993 5.354820 -58.938600 -11.754300 -0.000006 -0.000006 -0.011440 -0.114100 -21.223800
0.000000 0.000000 0.000000 0.000000 0.000000 -0.000000 230.338000 93.531100 -155.700000 87.449900 -2.746880 -5.275980 15.735700 0.000005 -0.000001 136.992000 86.698900 -136.552000 8.984550 -0.406207 -0.000000 -3.286340 4.783090 1.018440 16.377300 -0.000001 -0.000001 -4.398550 -1.434200 2.497560 6.456720 -0.000001 -0.000000 4.867010 -2.697800 3.781020 12.994200 -0.242716 4.980390 -92.063500 5.685290 -70.013600 5.348090 -0.000007 -0.000001 -44.699700 -22.435500 28.352500 24.328600 0.000019 0.000005 0.968912 16.853900 -3.338240 22.291600 -0.000001 0.000005 25.020700 4.047730 23.524200 12.994500 -0.242716 -4.980390 89.611000 1.434290 -74.825400 -5.348130 -0.000001 -0.000004 -63.889400 17.620900 -21.096400 -24.328900 0.000322 -0.000009 -5.627530 -3.990990 -54.758500 -22.291500 -0.000108 -0.000004 7.283790 5.486250 -5.983000 -2.192480 -6.469440 -0.000000 -173.107000 -2.537770 -23.052600 39.081100 -0.000007 -0.000012 0.037893 -0.203990 10.523600 40.985400 -0.000006 -0.000013 -11.410000 13.040700 -60.995600 11.754300 -0.000000 0.000003 0.001917 0.043679 -14.805000 -2.192510 6.469440 -0.000001 -179.319000 6.166140 -174.745000 -39.081100 -0.002282 -0.040193 0.002792 0.001569 18.729000 -40.985400 0.000008 0.000006 0.440943 4.195340 -60.006100 -11.754300 -0.000006 -0.000006 -0.021804 -0.177081 -23.811500
0.000000 0.000000 0.000000 0.000000 0.000000 -0.000000 231.232000 92.395800 -151.751000 87.931100 -2.296660 -5.620660 15.735700 0.000005 -0.000001 137.970000 86.994800 -137.747000 8.984550 -0.406207 -0.000000 -3.756130 4.439430 0.593023 16.377300 -0.000001 -0.000001 -3.750970 -1.414180 2.653280 6.456720 -0.000001 -0.000000 5.014070 -2.389820 3.982700 12.994200 -0.242716 4.980390 -92.324500 6.448550 -70.128700 5.348090 -0.000007 -0.000001 -44.968400 -22.089300 25.964500 24.328600 0.000019 0.000005 0.742021 11.719500 -3.648670 22.291600 -0.000001 0.000005 33.922700 4.046840 23.564000 12.994500 -0.242716 -4.980390 89.427700 2.061320 -74.480300 -5.348130 -0.000001 -0.000004 -65.745000 16.082200 -18.986600 -24.328900 0.000322 -0.000009 -8.158190 -6.019870 -53.809500 -22.291500 -0.000108 -0.000004 9.721700 5.567070 -9.525590 -2.192480 -6.469440 -0.000000 -174.429000 -3.228970 -24.238100 39.081100 -0.000007 -0.000012 0.042775 -0.209961 11.515500 40.985400 -0.000006 -0.000013 -14.063000 11.981000 -60.547900 11.754300 -0.000000 0.000003 0.001690 0.036353 -15.102100 -2.192510 6.469440 -0.000001 179.875000 4.848370 -174.546000 -39.081100 -0.002282 -0.040193 0.006882 -0.008654 22.390000 -40.985400 0.000008 0.000006 0.308449 2.180320 -61.016900 -11.754300 -0.000006 -0.000006 -0.038647 -0.254670 -27.030600
0.000000 0.000000 0.000000 0.000000 0.000000 -0.000000 232.232000 91.235900 -147.435000 88.698300 -1.957970 -6.456500 15.735700 0.000005 -0.000001 143.390000 87.615000 -143.465000 8.984550 -0.406207 -0.000000 -4.924710 3.833480 0.014782 16.377300 -0.000001 -0.000001 -2.596670 -1.151600 2.968150 6.456720 -0.000001 -0.000000 5.586530 -1.860420 4.191270 12.994200 -0.242716 4.980390 -92.744200 7.540540 -69.934800 5.348090 -0.000007 -0.000001 -45.411900 -22.544600 23.366300 24.328600 0.000019 0.000005 0.574502 7.239240 -4.550370 22.291600 -0.000001 0.000005 34.492100 4.267570 20.282800 12.994500 -0.242716 -4.980390 89.051400 3.320560 -74.047900 -5.348130 -0.000001 -0.000004 -67.491100 14.858200 -15.997200 -24.328900 0.000322 -0.000009 -8.471120 -7.347300 -49.344100 -22.291500 -0.000108 -0.000004 12.058200 5.615410 -12.303900 -2.192480 -6.469440 -0.000000 -177.358000 -3.780600 -30.469900 39.081100 -0.000007 -0.000012 0.090997 -0.196619 24.835200 40.985400 -0.000006 -0.000013 -4.311660 11.710000 -60.752700 11.754300 -0.000000 0.000003 0.002485 0.086528 -13.067700 -2.192510 6.469440 -0.000001 178.761000 3.800090 -175.683000 -39.081100 -0.002282 -0.040193 0.021810 -0.035667 27.419100 -40.985400 0.000008 0.000006 0.420527 0.474443 -60.238700 -11.754300 -0.000006 -0.000006 -0.077703 -0.385469 -32.566700
